<svg width="984" height="1852" viewBox="0 0 984 1852" fill="none" xmlns="http://www.w3.org/2000/svg">
<path d="M20.2659 1778.57L0.513268 111.599C0.490781 109.701 1.5718 107.947 3.24455 107.051C53.5475 80.0892 63.2125 41.0553 59.3554 16.8128C58.8599 13.6991 60.9788 10.6513 64.1234 10.423C164.985 3.10158 295.071 1.91233 426.05 0.714905L427.454 0.70207C440.058 0.586831 433.411 36.5499 467.172 36.5499C494.975 36.5499 498.358 0.77012 510.863 0.700972C702.129 -0.356639 866.632 0.600035 896.584 0.694457C898.749 0.701284 900.549 2.10208 901.29 4.13646C913.123 36.5875 935.644 44.8517 978.508 45.4165C981.27 45.4529 983.517 47.5821 983.516 50.3435C983.462 629.755 973.857 1649.33 983.158 1787.82C983.354 1790.74 980.979 1792.59 978.066 1792.88C945.997 1796.01 936.752 1826.87 935.888 1846.44C935.764 1849.27 933.514 1851.6 930.686 1851.6H614.132C598.304 1851.6 592.343 1785.12 555.092 1792.5C554.744 1792.57 554.362 1792.61 554.008 1792.62C510.84 1793.11 508.054 1851.6 491.004 1851.6H129.076C126.972 1851.6 125.118 1850.26 124.333 1848.31C104.235 1798.35 51.5943 1782.88 26.1906 1783.88C23.0997 1784 20.3025 1781.66 20.2659 1778.57Z" fill="white"/>
</svg>
