<svg width="17" height="18" viewBox="0 0 17 18" fill="none" xmlns="http://www.w3.org/2000/svg">
<path d="M16.2366 15.316C16.2366 15.3587 16.2366 15.412 16.2366 15.476C16.258 15.5187 16.2686 15.5613 16.2686 15.604C16.2686 15.9667 16.1726 16.2653 15.9806 16.5C15.7886 16.756 15.5433 16.884 15.2446 16.884C15.0313 16.884 14.818 16.788 14.6046 16.596C14.3913 16.404 14.1673 16.148 13.9326 15.828C13.7193 15.508 13.4846 15.1453 13.2286 14.74C12.9726 14.3133 12.6846 13.876 12.3646 13.428C11.938 12.9587 11.4366 12.4147 10.8606 11.796C10.2846 11.1773 9.64463 10.4627 8.94063 9.652C7.91663 11.1667 7.03129 12.244 6.28463 12.884L4.46063 15.316C4.24729 15.6787 4.01263 16.0627 3.75663 16.468C3.50063 16.852 3.22329 17.2787 2.92463 17.748C2.73263 17.8333 2.48729 17.876 2.18863 17.876C1.67663 17.876 1.31396 17.7693 1.10063 17.556C0.887292 17.364 0.780625 17.0653 0.780625 16.66C0.823292 16.532 0.951292 16.308 1.16463 15.988C1.37796 15.6467 1.59129 15.3053 1.80463 14.964C2.03929 14.6227 2.25263 14.324 2.44463 14.068C2.63663 13.7907 2.74329 13.6413 2.76463 13.62C3.08463 13.236 3.44729 12.82 3.85263 12.372C4.25796 11.9027 4.66329 11.4227 5.06863 10.932C5.49529 10.4413 5.90063 9.95067 6.28463 9.46C6.68996 8.96933 7.04196 8.48933 7.34063 8.02C7.10596 7.828 6.87129 7.62533 6.63663 7.412C6.42329 7.17733 6.15663 6.92133 5.83663 6.644C5.53796 6.34533 5.18596 6.01467 4.78063 5.652C4.37529 5.28933 3.87396 4.86267 3.27663 4.372C2.74329 3.94533 2.36996 3.52933 2.15663 3.124C2.43396 2.27067 2.87129 1.844 3.46863 1.844C3.53263 1.844 3.62863 1.86533 3.75663 1.908L5.96463 3.828C6.00729 3.91333 6.10329 4.03067 6.25263 4.18C6.42329 4.32933 6.59396 4.48933 6.76463 4.66C6.95663 4.83067 7.13796 5.00133 7.30863 5.172C7.47929 5.32133 7.59663 5.46 7.66063 5.588C8.00196 5.69467 8.38596 5.99333 8.81263 6.484C9.04729 6.18533 9.29263 5.88667 9.54862 5.588C9.82596 5.28933 10.114 4.99067 10.4126 4.692L12.0126 2.804C12.5673 2.18533 13.0686 1.66267 13.5166 1.236C13.9646 0.787999 14.2846 0.563999 14.4766 0.563999C14.7326 0.563999 14.9886 0.681333 15.2446 0.915999C15.5006 1.12933 15.6286 1.35333 15.6286 1.588C15.6286 1.652 15.586 1.76933 15.5006 1.94C15.4153 2.08933 15.266 2.30267 15.0526 2.58C14.8393 2.836 14.5513 3.17733 14.1886 3.604C13.826 4.00933 13.3566 4.51067 12.7806 5.108C12.738 5.12933 12.5886 5.28933 12.3326 5.588C12.0766 5.88667 11.7993 6.20667 11.5006 6.548C11.2233 6.88933 10.9566 7.20933 10.7006 7.508C10.4446 7.80667 10.306 7.96667 10.2846 7.988L12.2046 10.132C12.3966 10.4093 12.61 10.6867 12.8446 10.964C13.1006 11.22 13.3993 11.5293 13.7406 11.892C14.082 12.2547 14.4553 12.7133 14.8606 13.268C15.266 13.8013 15.7246 14.484 16.2366 15.316Z" fill="white"/>
</svg>
